<?xml version="1.0" encoding="UTF-8" ?>
<!DOCTYPE svg PUBLIC "-//W3C//DTD SVG 1.1//EN" "http://www.w3.org/Graphics/SVG/1.1/DTD/svg11.dtd">
<svg width="1882pt" height="573pt" viewBox="0 0 1882 573" version="1.1" xmlns="http://www.w3.org/2000/svg">
<g id="#ffffffff">
<path fill="#ffffff" opacity="1.00" d=" M 1363.00 46.00 C 1526.00 46.00 1689.00 46.00 1852.00 46.00 C 1852.00 209.00 1852.00 372.00 1852.00 535.00 C 1689.00 535.00 1526.00 535.00 1363.00 535.00 C 1363.00 505.67 1363.00 476.33 1363.00 447.00 C 1372.33 447.00 1381.66 447.00 1391.00 447.00 C 1391.00 467.00 1391.00 487.00 1391.00 507.00 C 1535.33 507.00 1679.67 507.00 1824.00 507.00 C 1824.00 362.67 1824.00 218.33 1824.00 74.00 C 1679.67 74.00 1535.33 74.00 1391.00 74.00 C 1391.00 96.00 1391.00 118.00 1391.00 140.00 C 1381.66 140.00 1372.33 140.00 1363.00 140.00 C 1363.00 108.67 1363.00 77.33 1363.00 46.00 Z" />
<path fill="#ffffff" opacity="1.00" d=" M 109.24 162.20 C 121.74 158.18 135.07 157.10 148.12 158.12 C 170.95 159.46 193.82 167.59 210.99 182.98 C 225.07 195.50 234.15 213.98 233.78 232.99 C 233.96 239.13 232.70 245.79 228.29 250.37 C 223.90 254.99 217.17 256.41 211.02 256.28 C 205.11 256.44 199.24 255.43 193.50 254.06 C 193.43 237.78 190.18 220.36 179.12 207.78 C 169.73 196.83 155.28 191.20 141.03 191.24 C 128.90 190.69 116.36 194.06 106.97 201.95 C 96.98 210.15 90.70 221.92 86.55 233.97 C 80.29 252.55 78.65 272.29 78.33 291.78 C 78.37 314.66 80.20 338.23 89.53 359.43 C 95.42 372.85 105.46 385.05 119.20 390.85 C 134.27 397.23 151.59 396.73 167.03 391.90 C 183.53 386.73 198.22 377.08 211.42 366.10 C 221.17 372.34 228.97 381.83 232.11 393.09 C 221.53 403.38 208.97 411.40 195.71 417.77 C 176.26 427.05 154.68 432.63 133.03 431.51 C 121.18 431.12 109.29 429.13 98.24 424.75 C 87.25 420.29 77.29 413.46 68.93 405.07 C 59.38 395.29 52.72 383.10 47.66 370.50 C 36.49 341.49 33.46 309.84 35.34 278.98 C 36.98 251.16 44.01 222.98 59.67 199.61 C 71.49 182.16 88.94 168.32 109.24 162.20 Z" />
<path fill="#ffffff" opacity="1.00" d=" M 757.96 163.05 C 779.22 156.23 802.14 156.69 823.92 160.57 C 841.44 163.80 858.31 169.94 874.23 177.84 C 874.12 190.25 868.19 202.07 859.01 210.28 C 839.70 200.76 818.91 193.26 797.24 192.07 C 785.41 191.51 772.95 193.22 762.83 199.77 C 754.83 205.02 747.92 213.13 746.91 222.97 C 746.16 231.29 747.74 240.36 753.30 246.86 C 758.63 252.82 765.73 256.83 772.87 260.23 C 791.02 268.09 809.21 275.85 827.35 283.75 C 844.84 291.79 862.05 302.78 872.28 319.56 C 881.20 333.87 882.75 351.54 880.32 367.91 C 878.14 382.77 871.11 396.92 860.28 407.37 C 847.32 420.54 829.13 427.04 811.19 429.74 C 790.88 432.62 769.99 432.46 749.93 427.93 C 729.81 423.49 710.87 414.52 694.04 402.72 C 694.81 390.08 701.60 378.29 711.58 370.63 C 728.02 381.46 746.11 390.12 765.41 394.34 C 780.13 397.37 795.66 398.31 810.26 394.18 C 820.23 391.28 829.73 385.15 834.78 375.86 C 840.58 364.69 839.13 350.36 831.84 340.21 C 825.71 331.47 816.45 325.54 806.95 321.02 C 793.27 314.98 779.50 309.13 765.79 303.18 C 750.94 297.08 736.05 290.00 724.44 278.65 C 714.01 268.86 706.83 255.48 705.26 241.19 C 702.84 222.70 708.45 203.46 720.16 188.99 C 729.64 176.66 743.14 167.66 757.96 163.05 Z" />
<path fill="#ffffff" opacity="1.00" d=" M 1171.73 172.01 C 1190.41 160.13 1213.31 156.79 1235.08 158.02 C 1260.23 159.17 1284.79 166.61 1307.23 177.84 C 1307.13 190.25 1301.18 202.07 1292.01 210.28 C 1272.69 200.75 1251.87 193.24 1230.19 192.07 C 1218.36 191.51 1205.90 193.23 1195.79 199.79 C 1187.80 205.04 1180.93 213.17 1179.91 222.98 C 1179.10 231.71 1180.95 241.30 1187.18 247.82 C 1192.78 253.60 1199.98 257.54 1207.24 260.85 C 1220.73 266.61 1234.18 272.46 1247.66 278.24 C 1264.31 285.16 1281.13 292.98 1294.17 305.77 C 1307.36 318.03 1314.88 336.00 1314.26 354.01 C 1314.78 373.14 1307.99 392.70 1294.32 406.33 C 1281.94 419.48 1264.35 426.34 1246.85 429.31 C 1226.43 432.58 1205.37 432.62 1185.09 428.40 C 1164.17 424.11 1144.47 414.95 1127.04 402.72 C 1127.81 390.08 1134.61 378.30 1144.58 370.63 C 1169.16 386.83 1198.19 398.55 1228.09 396.72 C 1241.17 396.01 1254.91 391.78 1263.77 381.64 C 1273.40 370.92 1273.53 353.89 1266.03 341.98 C 1259.96 332.28 1250.05 325.81 1239.91 321.00 C 1221.85 313.01 1203.61 305.42 1185.57 297.39 C 1167.92 289.07 1150.88 276.55 1142.89 258.18 C 1135.24 240.61 1136.30 219.75 1144.58 202.59 C 1150.69 190.23 1160.10 179.45 1171.73 172.01 Z" />
<path fill="#ffffff" opacity="1.00" d=" M 1357.78 161.34 C 1371.40 159.26 1385.36 159.33 1398.98 161.35 C 1399.03 249.63 1398.98 337.91 1399.01 426.19 C 1385.39 428.36 1371.37 428.37 1357.75 426.21 C 1357.77 337.92 1357.70 249.63 1357.78 161.34 Z" />
<path fill="#ffffff" opacity="1.00" d=" M 1470.76 161.68 C 1487.02 159.04 1503.66 159.29 1519.98 161.29 C 1547.23 215.04 1574.19 268.93 1601.26 322.76 C 1610.07 341.21 1617.94 360.10 1626.69 378.57 C 1627.09 378.95 1627.88 379.73 1628.27 380.12 C 1627.37 354.92 1625.83 329.70 1625.59 304.47 C 1625.37 266.66 1625.56 228.83 1625.50 191.01 C 1625.50 183.18 1624.97 174.81 1628.79 167.68 C 1630.88 163.43 1635.43 161.14 1639.92 160.31 C 1646.97 159.07 1654.16 159.63 1661.29 159.49 C 1662.08 160.16 1662.90 160.84 1663.73 161.51 C 1663.78 249.59 1663.75 337.67 1663.74 425.74 C 1647.26 428.50 1630.38 428.15 1613.83 426.17 C 1586.44 372.18 1559.02 318.20 1531.61 264.22 C 1523.03 246.51 1515.22 228.42 1507.10 210.51 L 1505.83 209.97 C 1507.08 234.30 1508.38 258.64 1509.00 283.00 C 1509.56 330.71 1509.10 378.44 1509.25 426.16 C 1496.52 428.15 1483.47 428.29 1470.75 426.16 C 1470.76 338.00 1470.74 249.84 1470.76 161.68 Z" />
<path fill="#ffffff" opacity="1.00" d=" M 286.40 161.22 C 294.65 161.59 303.05 160.41 311.17 162.28 C 315.84 163.29 320.13 166.31 322.22 170.67 C 325.34 176.94 325.38 184.13 325.25 190.97 C 325.35 258.11 325.06 325.25 325.39 392.38 C 348.51 389.89 371.81 391.00 395.01 390.75 C 408.77 390.75 422.52 390.75 436.28 390.75 C 436.08 397.36 435.97 404.07 434.30 410.51 C 432.67 416.55 428.39 421.93 422.53 424.31 C 418.60 425.97 414.32 426.75 410.07 426.76 C 375.34 426.74 340.61 426.77 305.88 426.75 C 299.54 426.64 293.22 423.86 289.16 418.93 C 285.52 414.50 283.84 408.72 283.75 403.05 C 283.75 323.66 283.75 244.27 283.75 164.88 C 283.39 163.08 285.43 162.34 286.40 161.22 Z" />
<path fill="#ffffff" opacity="1.00" d=" M 541.57 162.74 C 557.08 160.69 572.92 160.63 588.43 162.75 C 617.34 249.76 646.17 336.79 675.04 423.82 C 665.14 429.90 652.59 430.43 641.54 427.62 C 633.44 425.44 629.80 417.01 627.24 409.82 C 622.24 393.99 617.14 378.19 612.29 362.31 C 579.56 362.86 546.78 363.08 514.05 362.23 C 507.14 383.72 500.39 405.27 493.54 426.78 C 480.90 429.13 467.63 428.95 455.19 425.56 C 454.46 424.44 454.31 423.29 454.74 422.13 C 483.64 335.65 512.62 249.20 541.57 162.74 M 524.54 328.74 C 550.24 328.36 575.96 328.44 601.66 328.71 C 588.50 287.33 574.94 246.05 563.57 204.13 C 563.14 203.94 562.29 203.56 561.86 203.37 C 552.43 246.00 537.56 287.13 524.54 328.74 Z" />
<path fill="#ffffff" opacity="1.00" d=" M 934.24 163.00 C 986.02 163.00 1037.79 163.00 1089.57 163.00 C 1091.15 174.51 1091.68 186.61 1087.71 197.73 C 1049.20 197.77 1010.69 197.78 972.19 197.72 C 972.63 223.97 972.49 250.23 972.50 276.49 C 1004.57 276.03 1036.65 276.31 1068.72 276.27 C 1071.27 287.36 1071.24 299.12 1068.82 310.24 C 1049.86 310.27 1030.91 310.24 1011.96 310.25 C 998.81 310.12 985.64 310.55 972.50 309.95 C 972.42 337.55 972.74 365.15 972.18 392.74 C 986.73 391.23 1001.37 391.52 1015.98 391.50 C 1043.07 391.50 1070.16 391.49 1097.26 391.50 C 1097.14 400.45 1097.28 410.33 1091.91 417.97 C 1086.72 425.04 1077.32 427.14 1068.99 426.76 C 1030.63 426.74 992.27 426.75 953.92 426.76 C 948.23 426.72 942.43 424.65 938.41 420.55 C 933.85 415.98 931.75 409.41 931.74 403.05 C 931.76 323.72 931.74 244.39 931.75 165.05 C 932.57 164.37 933.40 163.68 934.24 163.00 Z" />
</g>
</svg>
